<svg xmlns:xlink="http://www.w3.org/1999/xlink" height="16" width="16" version="1.1" viewBox="0 0 16 16" xmlns="http://www.w3.org/2000/svg" class="ctaLinkIcon-3XB0n" focusable="false" role="img" aria-hidden="true" data-testid="link-arrow-icon"><g fill="none" fill-rule="evenodd" stroke="none" stroke-width="1"><path d="M10.53,2.46999997 L15.53,7.46999997 C15.812193,7.75768334 15.8166089,8.21694356 15.54,8.51 L15.54,8.51 L10.54,13.51 L10.19,13.16 C10.0006874,12.9722334 9.89420169,12.7166376 9.89420169,12.45 C9.89420169,12.1833625 10.0006874,11.9277666 10.19,11.74 L10.19,11.74 L13.19,8.74 L4.99999998,8.74 C4.44771523,8.74 3.99999998,8.29228475 3.99999998,7.74 L3.99999998,7.74 L3.99999998,7.24 L13.18,7.24 L10.18,4.23999998 C9.99068736,4.05223338 9.88420169,3.79663751 9.88420169,3.52999997 C9.88420169,3.26336243 9.99068736,3.00776657 10.18,2.81999997 L10.18,2.81999997 L10.53,2.46999997 Z M1.99999995,7.25 C2.55228472,7.25 2.99999995,7.69771525 2.99999995,8.25 L2.99999995,8.25 L2.99999995,8.75 L0.99999995,8.75 C0.447715203,8.75 -5.00001567e-08,8.30228475 -5.00001567e-08,7.75 L-5.00001567e-08,7.75 L-5.00001567e-08,7.25 Z" fill="#D31334"></path></g></svg>