<svg xmlns:xlink="http://www.w3.org/1999/xlink" height="16" width="16" version="1.1" viewBox="0 0 16 16" xmlns="http://www.w3.org/2000/svg" class="search_closeIcon__2IKj1" focusable="false" role="img" aria-labelledby="icon_4db35a1a-6b1d-4092-912c-df278d26b524" aria-hidden="false"><title id="icon_4db35a1a-6b1d-4092-912c-df278d26b524">Close</title><g fill="none" fill-rule="evenodd" stroke="none" stroke-width="1"><path d="M13.82,1.81999996 L13.47,1.46999996 L8,6.93999999 L3.23999997,2.17999996 C3.05223337,1.99068731 2.7966375,1.88420164 2.52999997,1.88420164 C2.26336243,1.88420164 2.00776656,1.99068731 1.81999996,2.17999996 L1.46999996,2.52999997 L6.93999999,8 L2.17999996,12.76 C1.99068731,12.9477666 1.88420164,13.2033625 1.88420164,13.47 C1.88420164,13.7366376 1.99068731,13.9922334 2.17999996,14.18 L2.52999997,14.53 L8,9.06000001 L12.76,13.82 C12.9477666,14.0093127 13.2033625,14.1157984 13.47,14.1157984 C13.7366376,14.1157984 13.9922334,14.0093127 14.18,13.82 L14.53,13.47 L9.06000001,8 L13.82,3.23999997 C14.0093127,3.05223337 14.1157984,2.7966375 14.1157984,2.52999997 C14.1157984,2.26336243 14.0093127,2.00776656 13.82,1.81999996 Z" fill="currentColor"></path></g></svg>