<svg xmlns:xlink="http://www.w3.org/1999/xlink" height="14" width="16" viewBox="0 0 16 16" xmlns="http://www.w3.org/2000/svg" class="iconComponents_icon__2vPA3" focusable="false" role="img" aria-labelledby="icon_f2a75cc8-2b57-4a27-b06d-2f9028015991" aria-hidden="false"><title id="icon_f2a75cc8-2b57-4a27-b06d-2f9028015991"><svg height="16" width="16" viewBox="0 0 16 16" xmlns="http://www.w3.org/2000/svg"><g fill="currentColor" fill-rule="evenodd"><path d="M14.5,2.75a.5.5,0,0,1,.5.5v9.5a.5.5,0,0,1-.5.5H1.5a.5.5,0,0,1-.5-.5V3.25a.5.5,0,0,1,.5-.5h13m0-1H1.5A1.5,1.5,0,0,0,0,3.25v9.5a1.5,1.5,0,0,0,1.5,1.5h13a1.5,1.5,0,0,0,1.5-1.5V3.25a1.5,1.5,0,0,0-1.5-1.5Z"></path><path d="M7.32,8.79H7.24c-.5-.08-3-.54-3.72-1.28a2.22,2.22,0,0,1,0-3.08,2.18,2.18,0,0,1,3.05,0h0c.71.73,1.16,3.28,1.24,3.79a.46.46,0,0,1-.14.43A.47.47,0,0,1,7.32,8.79ZM5,4.77a1.08,1.08,0,0,0-.8.35,1.2,1.2,0,0,0,0,1.68,7,7,0,0,0,2.45.85,7.23,7.23,0,0,0-.84-2.53h0A1.1,1.1,0,0,0,5,4.77Z"></path><path d="M8.66,8.79a.47.47,0,0,1-.35-.15.46.46,0,0,1-.14-.43c.08-.51.53-3.06,1.25-3.79a2.17,2.17,0,0,1,3,0,2.22,2.22,0,0,1,0,3.08c-.72.74-3.22,1.2-3.71,1.28Zm2.28-4a1.1,1.1,0,0,0-.81.35,7.44,7.44,0,0,0-.84,2.54,7.12,7.12,0,0,0,2.46-.86,1.21,1.21,0,0,0,0-1.68A1.11,1.11,0,0,0,10.94,4.77Z"></path><path d="M8.25,9l-2.74,2.8-.36.36-.23-.24a.68.68,0,0,1,0-1L7.54,8.24a.5.5,0,0,1,.71,0A.54.54,0,0,1,8.25,9Z"></path><path d="M7.73,9l2.74,2.8.36.36.23-.24a.7.7,0,0,0,0-1L8.44,8.24a.5.5,0,0,0-.71,0A.54.54,0,0,0,7.73,9Z"></path><rect height="1" width="16" y="8.36"></rect><rect height="12" width="1" x="7.49" y="2"></rect></g></svg></title><g fill="currentColor" fill-rule="evenodd"><path d="M14.5,2.75a.5.5,0,0,1,.5.5v9.5a.5.5,0,0,1-.5.5H1.5a.5.5,0,0,1-.5-.5V3.25a.5.5,0,0,1,.5-.5h13m0-1H1.5A1.5,1.5,0,0,0,0,3.25v9.5a1.5,1.5,0,0,0,1.5,1.5h13a1.5,1.5,0,0,0,1.5-1.5V3.25a1.5,1.5,0,0,0-1.5-1.5Z"></path><path d="M7.32,8.79H7.24c-.5-.08-3-.54-3.72-1.28a2.22,2.22,0,0,1,0-3.08,2.18,2.18,0,0,1,3.05,0h0c.71.73,1.16,3.28,1.24,3.79a.46.46,0,0,1-.14.43A.47.47,0,0,1,7.32,8.79ZM5,4.77a1.08,1.08,0,0,0-.8.35,1.2,1.2,0,0,0,0,1.68,7,7,0,0,0,2.45.85,7.23,7.23,0,0,0-.84-2.53h0A1.1,1.1,0,0,0,5,4.77Z"></path><path d="M8.66,8.79a.47.47,0,0,1-.35-.15.46.46,0,0,1-.14-.43c.08-.51.53-3.06,1.25-3.79a2.17,2.17,0,0,1,3,0,2.22,2.22,0,0,1,0,3.08c-.72.74-3.22,1.2-3.71,1.28Zm2.28-4a1.1,1.1,0,0,0-.81.35,7.44,7.44,0,0,0-.84,2.54,7.12,7.12,0,0,0,2.46-.86,1.21,1.21,0,0,0,0-1.68A1.11,1.11,0,0,0,10.94,4.77Z"></path><path d="M8.25,9l-2.74,2.8-.36.36-.23-.24a.68.68,0,0,1,0-1L7.54,8.24a.5.5,0,0,1,.71,0A.54.54,0,0,1,8.25,9Z"></path><path d="M7.73,9l2.74,2.8.36.36.23-.24a.7.7,0,0,0,0-1L8.44,8.24a.5.5,0,0,0-.71,0A.54.54,0,0,0,7.73,9Z"></path><rect height="1" width="16" y="8.36"></rect><rect height="12" width="1" x="7.49" y="2"></rect></g></svg>