<svg xmlns:xlink="http://www.w3.org/1999/xlink" height="12" width="12" viewBox="0 0 24 24" xmlns="http://www.w3.org/2000/svg" class="pay-later-promo-message_icon__17CG-" focusable="false" role="img" aria-labelledby="icon_4bc97f7b-4fcf-4999-a1de-253beba2008f" aria-hidden="false"><title id="icon_4bc97f7b-4fcf-4999-a1de-253beba2008f">Installment pay info</title><g fill="none" fill-rule="evenodd" stroke="#2C282E"><circle cx="12" cy="12" r="11" stroke-width="2px" stroke="#2C282E" fill="none"></circle><g fill="#2C282E" fill-rule="evenodd" transform="translate(10.25 6)" stroke="#2C282E"><path d="m3.3 1.15c0 .63512746-.51487254 1.15-1.15 1.15s-1.15-.51487254-1.15-1.15.51487254-1.15 1.15-1.15 1.15.51487254 1.15 1.15z" stroke="#2C282E" fill="#2C282E"></path><path d="m2.06769231 9.88461538h1.16307692v.53846152c0 .5947682-.48215488 1.0769231-1.07692308 1.0769231h-1.07692307c-.2408456-.0003004-.46933342-.1066654-.62461539-.2907692-.15086279-.1915781-.21347505-.4381139-.17230769-.6784616l.88307692-4.41538458h-1.16307692v-.53846154c0-.5947682.48215489-1.07692308 1.07692308-1.07692308h1.07692307c.24084561.00030042.46933342.10666544.62461539.29076923.15086279.19157811.21347505.43811387.17230769.67846154z" stroke="#2C282E" fill="#2C282E"></path></g></g></svg>