<svg xmlns:xlink="http://www.w3.org/1999/xlink" height="24" width="24" viewBox="0 0 24 24" xmlns="http://www.w3.org/2000/svg" class="icon reviews-icon" focusable="false" role="img" aria-labelledby="icon_8d28b2e2-67bc-47b4-9b39-811e8734ab1f" aria-hidden="false"><title id="icon_8d28b2e2-67bc-47b4-9b39-811e8734ab1f">Reviews</title><path d="M22.4,11.4c0.4-0.4,0.6-1,0.6-1.5c0-0.5-0.2-1-0.5-1.4c-0.3-0.4-0.8-0.7-1.3-0.8l-4.8-0.7c-0.2,0-0.3-0.2-0.4-0.3l-2.1-4.5 C13.5,1.4,12.7,1,12,1c-0.8,0-1.5,0.4-1.9,1.2L8,6.7C7.9,6.9,7.7,7,7.6,7.1L2.8,7.8c-0.6,0.1-1,0.4-1.3,0.8C1.2,8.9,1,9.4,1,9.9 c0,0.5,0.2,1.1,0.6,1.5l3.4,3.5c0.1,0.1,0.2,0.3,0.2,0.5v0.1l-0.8,4.9c0,0.1,0,0.2,0,0.4c0,1.2,1,2.1,2.1,2.1c0.3,0,0.7-0.1,1-0.3 l4.3-2.3l0.3-0.1l0.3,0.1l4.3,2.3c0.3,0.2,0.7,0.3,1,0.3c1.1,0,2.1-0.9,2.1-2.1c0-0.1,0-0.2,0-0.4l-0.8-4.9v0l0-0.1 c0-0.2,0.1-0.4,0.2-0.5L22.4,11.4z M17.3,15.8l0.8,4.9l0,0.1c0,0.2-0.1,0.3-0.2,0.5c-0.1,0.1-0.3,0.2-0.4,0.2c-0.1,0-0.2,0-0.3-0.1 L13,19.1c-0.3-0.2-0.6-0.2-1-0.2c-0.3,0-0.7,0.1-1,0.2l-4.3,2.3c-0.1,0.1-0.2,0.1-0.3,0.1c-0.1,0-0.3-0.1-0.4-0.2 c-0.1-0.1-0.2-0.3-0.2-0.5l0-0.1v0l0.8-4.9c0-0.1,0-0.2,0-0.4c0-0.6-0.2-1.1-0.6-1.5l-3.5-3.5c-0.1-0.1-0.2-0.3-0.2-0.5 c0-0.2,0.1-0.3,0.2-0.4C2.7,9.4,2.9,9.3,3,9.3l4.8-0.7C8.5,8.4,9.1,8,9.4,7.4l2.1-4.5c0.1-0.3,0.3-0.3,0.5-0.3 c0.2,0,0.4,0.1,0.5,0.3l2.1,4.5C15,8,15.5,8.4,16.2,8.5L21,9.3c0.2,0,0.3,0.1,0.4,0.2c0.1,0.1,0.1,0.3,0.1,0.4 c0,0.2-0.1,0.3-0.2,0.5l-3.4,3.5c-0.4,0.4-0.6,1-0.6,1.5C17.2,15.5,17.3,15.7,17.3,15.8z" fill="currentColor"></path></svg>