<svg xmlns:xlink="http://www.w3.org/1999/xlink" height="24" width="24" viewBox="0 0 12 12" xmlns="http://www.w3.org/2000/svg" x="0px" y="0px" class="reviews-header_reviewStar__RRkug" focusable="false" role="img" aria-hidden="true"><path d="M6.8,0.5L7.9,3c0.1,0.3,0.4,0.4,0.6,0.5l2.7,0.4c0.7,0.1,1,0.9,0.5,1.4l-2,2.1C9.6,7.6,9.5,7.9,9.5,8.1L10,11 c0.1,0.7-0.6,1.2-1.2,0.9l-2.3-1.3c-0.3-0.1-0.6-0.1-0.8,0l-2.3,1.3C2.6,12.2,1.9,11.7,2,11l0.5-2.9c0-0.3,0-0.5-0.2-0.7l-2-2.1 C-0.2,4.8,0,4,0.7,3.9l2.7-0.4c0.3,0,0.5-0.2,0.6-0.5l1.2-2.5C5.5-0.2,6.5-0.2,6.8,0.5z" fill="currentColor" fill-rule="evenodd"></path></svg>