<svg xmlns:xlink="http://www.w3.org/1999/xlink" height="14" width="14" version="1.1" viewBox="0 0 16 16" xmlns="http://www.w3.org/2000/svg" class="search_searchIcon__3DZ3s" focusable="false" role="img" aria-labelledby="icon_b3e4c890-f823-4d67-889a-935c41992f3b" aria-hidden="false"><title id="icon_b3e4c890-f823-4d67-889a-935c41992f3b">Search</title><g fill="none" fill-rule="evenodd" stroke="none" stroke-width="1"><path d="M15.53,14.47 L11.53,10.47 C13.4117351,8.047085 13.0896356,4.5795433 10.7938182,2.54468059 C8.49800068,0.509817868 5.01687151,0.606425974 2.83744354,2.76548546 C0.658015569,4.92454494 0.528725783,8.40461356 2.5419423,10.7194361 C4.55515882,13.0342586 8.01952332,13.3889023 10.46,11.53 L13.73,14.79 C13.9177666,14.9793127 14.1733625,15.0857984 14.44,15.0857984 C14.7066376,15.0857984 14.9622334,14.9793127 15.15,14.79 L15.53,14.47 Z M6.99999999,11.25 C4.65278979,11.25 2.74999997,9.3472102 2.74999997,6.99999999 C2.74999997,4.65278979 4.65278979,2.74999997 6.99999999,2.74999997 C9.3472102,2.74999997 11.25,4.65278979 11.25,6.99999999 C11.2445019,9.34492903 9.34492903,11.2445019 6.99999999,11.25 L6.99999999,11.25 Z" fill="currentColor"></path></g></svg>