<svg xmlns:xlink="http://www.w3.org/1999/xlink" xmlns="http://www.w3.org/2000/svg" height="16" width="16" viewBox="0 0 24 24" class="iconComponents_icon__2vPA3" focusable="false" role="img" aria-labelledby="icon_57d9e181-6b28-4757-b9d3-e3cf8d0a83ba" aria-hidden="false"><title id="icon_57d9e181-6b28-4757-b9d3-e3cf8d0a83ba"><svg height="24" width="24" viewBox="0 0 24 24"><g fill="currentColor" fill-rule="evenodd" stroke="none" stroke-width="1"><path d="M12,13.75 L12,13.75 C9.65999999,13.75 7.76999998,10.95 7.76999998,8.62999999 C7.71175143,7.47763224 8.13358132,6.35263811 8.93513297,5.52266265 C9.73668462,4.69268718 10.8463026,4.23192677 12,4.24999997 C13.1554201,4.22912544 14.267694,4.6886559 15.0714553,5.51895648 C15.8752166,6.34925707 16.2983847,7.47586719 16.24,8.62999999 C16.24,11 14.35,13.75 12,13.75 Z M12,12.25 L12,12.25 C13.41,12.25 14.74,10.25 14.74,8.62999999 C14.74,7.11673977 13.5132602,5.88999997 12,5.88999997 C10.4867398,5.88999997 9.25999999,7.11673977 9.25999999,8.62999999 C9.25999999,10.21 10.59,12.25 12,12.25 Z M23.7501408,12 C23.747319,8.7629512 22.410448,5.67014679 20.0543953,3.45034774 C17.6983426,1.23054869 14.5314731,0.0800698922 11.3,0.269999951 C4.8806643,0.734792781 0.00124133673,6.23079737 0.299999951,12.66 C0.413907928,14.9916244 1.22565688,17.2352567 2.62999996,19.1 L3.06999996,18.77 C3.46928704,18.4617435 3.57647527,17.9043647 3.31999996,17.47 C2.28627997,15.8334527 1.7415763,13.9356635 1.74999996,12 C1.75531618,7.64352733 4.5138165,3.76638452 8.62777135,2.33311627 C12.7417262,0.899848016 17.3121896,2.22363975 20.023312,5.63372741 C22.7344344,9.04381506 22.9938046,13.7950557 20.67,17.48 C20.4216737,17.914482 20.5327583,18.4656326 20.93,18.77 L21.37,19.1 C22.9257403,17.0611585 23.7626233,14.5645747 23.7501408,12 L23.7501408,12 Z M12,23.75 C9.12349179,23.7381218 6.3514487,22.6705827 4.20999997,20.75 L4.20999997,20.75 L4.14999997,20.7 C3.93442391,20.4571068 3.89441976,20.1050702 4.04999997,19.82 C4.46211838,18.7967568 5.07791707,17.8679555 5.85999997,17.09 C7.12700092,15.8326592 8.85592887,15.1526624 10.64,15.21 L13.36,15.21 C15.1440711,15.1526624 16.8729991,15.8326592 18.14,17.09 C18.8811288,17.8219195 19.4721905,18.6915275 19.88,19.65 C20.1217798,19.9394903 20.1217798,20.3605098 19.88,20.65 C19.8451679,20.694854 19.804854,20.7351679 19.76,20.77 C17.6213862,22.673289 14.8628441,23.7326261 12,23.75 L12,23.75 Z M5.61999997,20 C9.3534983,22.9739077 14.6465017,22.9739077 18.38,20 C18.0600887,19.3168758 17.6197219,18.6969748 17.08,18.17 C16.0934533,17.1947323 14.7460705,16.6731647 13.36,16.73 L10.64,16.73 C9.25392947,16.6731647 7.90654674,17.1947323 6.91999998,18.17 C6.38255867,18.6989212 5.94250003,19.3183884 5.61999997,20 Z"></path></g></svg></title><g fill="currentColor" fill-rule="evenodd" stroke="none" stroke-width="1"><path d="M12,13.75 L12,13.75 C9.65999999,13.75 7.76999998,10.95 7.76999998,8.62999999 C7.71175143,7.47763224 8.13358132,6.35263811 8.93513297,5.52266265 C9.73668462,4.69268718 10.8463026,4.23192677 12,4.24999997 C13.1554201,4.22912544 14.267694,4.6886559 15.0714553,5.51895648 C15.8752166,6.34925707 16.2983847,7.47586719 16.24,8.62999999 C16.24,11 14.35,13.75 12,13.75 Z M12,12.25 L12,12.25 C13.41,12.25 14.74,10.25 14.74,8.62999999 C14.74,7.11673977 13.5132602,5.88999997 12,5.88999997 C10.4867398,5.88999997 9.25999999,7.11673977 9.25999999,8.62999999 C9.25999999,10.21 10.59,12.25 12,12.25 Z M23.7501408,12 C23.747319,8.7629512 22.410448,5.67014679 20.0543953,3.45034774 C17.6983426,1.23054869 14.5314731,0.0800698922 11.3,0.269999951 C4.8806643,0.734792781 0.00124133673,6.23079737 0.299999951,12.66 C0.413907928,14.9916244 1.22565688,17.2352567 2.62999996,19.1 L3.06999996,18.77 C3.46928704,18.4617435 3.57647527,17.9043647 3.31999996,17.47 C2.28627997,15.8334527 1.7415763,13.9356635 1.74999996,12 C1.75531618,7.64352733 4.5138165,3.76638452 8.62777135,2.33311627 C12.7417262,0.899848016 17.3121896,2.22363975 20.023312,5.63372741 C22.7344344,9.04381506 22.9938046,13.7950557 20.67,17.48 C20.4216737,17.914482 20.5327583,18.4656326 20.93,18.77 L21.37,19.1 C22.9257403,17.0611585 23.7626233,14.5645747 23.7501408,12 L23.7501408,12 Z M12,23.75 C9.12349179,23.7381218 6.3514487,22.6705827 4.20999997,20.75 L4.20999997,20.75 L4.14999997,20.7 C3.93442391,20.4571068 3.89441976,20.1050702 4.04999997,19.82 C4.46211838,18.7967568 5.07791707,17.8679555 5.85999997,17.09 C7.12700092,15.8326592 8.85592887,15.1526624 10.64,15.21 L13.36,15.21 C15.1440711,15.1526624 16.8729991,15.8326592 18.14,17.09 C18.8811288,17.8219195 19.4721905,18.6915275 19.88,19.65 C20.1217798,19.9394903 20.1217798,20.3605098 19.88,20.65 C19.8451679,20.694854 19.804854,20.7351679 19.76,20.77 C17.6213862,22.673289 14.8628441,23.7326261 12,23.75 L12,23.75 Z M5.61999997,20 C9.3534983,22.9739077 14.6465017,22.9739077 18.38,20 C18.0600887,19.3168758 17.6197219,18.6969748 17.08,18.17 C16.0934533,17.1947323 14.7460705,16.6731647 13.36,16.73 L10.64,16.73 C9.25392947,16.6731647 7.90654674,17.1947323 6.91999998,18.17 C6.38255867,18.6989212 5.94250003,19.3183884 5.61999997,20 Z"></path></g></svg>