<svg xmlns:xlink="http://www.w3.org/1999/xlink" height="16" width="12" version="1.1" viewBox="0 0 18 24" xmlns="http://www.w3.org/2000/svg" class="mega-nav_icon__rYyw_" focusable="false" role="img" aria-labelledby="icon_46971f91-0eb3-44ca-b814-f4cc21ed2f2d" aria-hidden="false"><title id="icon_46971f91-0eb3-44ca-b814-f4cc21ed2f2d"><svg height="24" width="18" version="1.1" viewBox="0 0 18 24" xmlns="http://www.w3.org/2000/svg"><g fill="none" fill-rule="evenodd" stroke="none" stroke-width="1"><g fill="currentColor" transform="translate(-261.000000, -263.000000)"><g transform="translate(170.000000, 263.000000)"><g transform="translate(88.000000, 0.000000)"><path d="M12,20.88 C11.6045164,20.8748297 11.2851704,20.5554836 11.28,20.16 C11.28,18.8544 9.68639999,17.0112 8.51519999,15.6576 L8.15999998,15.2064 C6.60479998,13.3824 4.67519997,11.1168 4.67519997,7.75679998 C4.82626655,3.85095989 8.09273567,0.794264014 12,0.902399954 C15.9220322,0.772736192 19.2121785,3.83553215 19.3632,7.75679998 C19.3632,11.1168 17.4432,13.3824 15.8784,15.2064 L15.4848,15.6576 C14.3136,17.0112 12.72,18.8544 12.72,20.16 C12.7148296,20.5554836 12.3954836,20.8748297 12,20.88 Z M12,2.34239996 C8.87292271,2.21211737 6.22714606,4.63062309 6.07679998,7.75679998 C6.07679998,10.56 7.67039998,12.48 9.21599999,14.2656 L9.60959999,14.7168 C10.5018573,15.6903894 11.3020714,16.7444868 12,17.8656 C12.6979286,16.7444868 13.4981427,15.6903894 14.3904,14.7168 L14.784,14.2656 C16.3296,12.48 17.9232,10.56 17.9232,7.75679998 C17.7728539,4.63062309 15.1270773,2.21211737 12,2.34239996 Z M12,11.28 C10.2768716,11.28 8.87999999,9.88312841 8.87999999,8.15999998 C8.87999999,6.43687156 10.2768716,5.03999997 12,5.03999997 C13.7231284,5.03999997 15.12,6.43687156 15.12,8.15999998 C15.1147291,9.8809404 13.7209404,11.2747291 12,11.28 L12,11.28 Z M12,6.47999998 C11.0721616,6.47999998 10.32,7.2321616 10.32,8.15999998 C10.32,9.08783837 11.0721616,9.83999999 12,9.83999999 C12.9278384,9.83999999 13.68,9.08783837 13.68,8.15999998 C13.6747554,7.23434271 12.9256573,6.48524462 12,6.47999998 L12,6.47999998 Z M20.4,20.16 C20.4,18.8352 18.9888,17.7216 16.56,17.0976 C16.3008177,17.0290358 16.0247724,17.0719757 15.7986636,17.2160289 C15.5725548,17.3600821 15.4169849,17.5921228 15.3696,17.856 L15.2928,18.2976 C17.664,18.7296 18.9504,19.584 18.9504,20.16 C18.9504,21.0432 16.2432,22.32 11.9904,22.32 C7.73759998,22.32 5.03999997,21.0432 5.03999997,20.16 C5.03999997,19.584 6.32639998,18.7296 8.69759999,18.2976 L8.62079999,17.856 C8.57341508,17.5921228 8.41784523,17.3600821 8.19173642,17.2160289 C7.96562761,17.0719757 7.68958227,17.0290358 7.43039998,17.0976 C5.01119997,17.7216 3.59039996,18.8352 3.59039996,20.16 C3.59039996,22.5216 7.81439998,23.76 11.9904,23.76 C16.1664,23.76 20.4,22.5216 20.4,20.16 Z"></path></g></g></g></g></svg></title><g fill="none" fill-rule="evenodd" stroke="none" stroke-width="1"><g fill="currentColor" transform="translate(-261.000000, -263.000000)"><g transform="translate(170.000000, 263.000000)"><g transform="translate(88.000000, 0.000000)"><path d="M12,20.88 C11.6045164,20.8748297 11.2851704,20.5554836 11.28,20.16 C11.28,18.8544 9.68639999,17.0112 8.51519999,15.6576 L8.15999998,15.2064 C6.60479998,13.3824 4.67519997,11.1168 4.67519997,7.75679998 C4.82626655,3.85095989 8.09273567,0.794264014 12,0.902399954 C15.9220322,0.772736192 19.2121785,3.83553215 19.3632,7.75679998 C19.3632,11.1168 17.4432,13.3824 15.8784,15.2064 L15.4848,15.6576 C14.3136,17.0112 12.72,18.8544 12.72,20.16 C12.7148296,20.5554836 12.3954836,20.8748297 12,20.88 Z M12,2.34239996 C8.87292271,2.21211737 6.22714606,4.63062309 6.07679998,7.75679998 C6.07679998,10.56 7.67039998,12.48 9.21599999,14.2656 L9.60959999,14.7168 C10.5018573,15.6903894 11.3020714,16.7444868 12,17.8656 C12.6979286,16.7444868 13.4981427,15.6903894 14.3904,14.7168 L14.784,14.2656 C16.3296,12.48 17.9232,10.56 17.9232,7.75679998 C17.7728539,4.63062309 15.1270773,2.21211737 12,2.34239996 Z M12,11.28 C10.2768716,11.28 8.87999999,9.88312841 8.87999999,8.15999998 C8.87999999,6.43687156 10.2768716,5.03999997 12,5.03999997 C13.7231284,5.03999997 15.12,6.43687156 15.12,8.15999998 C15.1147291,9.8809404 13.7209404,11.2747291 12,11.28 L12,11.28 Z M12,6.47999998 C11.0721616,6.47999998 10.32,7.2321616 10.32,8.15999998 C10.32,9.08783837 11.0721616,9.83999999 12,9.83999999 C12.9278384,9.83999999 13.68,9.08783837 13.68,8.15999998 C13.6747554,7.23434271 12.9256573,6.48524462 12,6.47999998 L12,6.47999998 Z M20.4,20.16 C20.4,18.8352 18.9888,17.7216 16.56,17.0976 C16.3008177,17.0290358 16.0247724,17.0719757 15.7986636,17.2160289 C15.5725548,17.3600821 15.4169849,17.5921228 15.3696,17.856 L15.2928,18.2976 C17.664,18.7296 18.9504,19.584 18.9504,20.16 C18.9504,21.0432 16.2432,22.32 11.9904,22.32 C7.73759998,22.32 5.03999997,21.0432 5.03999997,20.16 C5.03999997,19.584 6.32639998,18.7296 8.69759999,18.2976 L8.62079999,17.856 C8.57341508,17.5921228 8.41784523,17.3600821 8.19173642,17.2160289 C7.96562761,17.0719757 7.68958227,17.0290358 7.43039998,17.0976 C5.01119997,17.7216 3.59039996,18.8352 3.59039996,20.16 C3.59039996,22.5216 7.81439998,23.76 11.9904,23.76 C16.1664,23.76 20.4,22.5216 20.4,20.16 Z"></path></g></g></g></g></svg>