<svg xmlns:xlink="http://www.w3.org/1999/xlink" height="16" viewBox="0 0 16 16" width="16" xmlns="http://www.w3.org/2000/svg" class="designed-for_icon__d_KCg col-1" aria-hidden="true"><path d="m.98 8.98 2-2a.5.5 0 0 1 .707 0l2 2-.234.233a.667.667 0 0 1-.946 0l-.667-.666v2.786a.667.667 0 0 1-.667.667H2.84V8.54l-.667.667a.667.667 0 0 1-.946 0zM7.5 5.873V12h.333a.667.667 0 0 0 .667-.667v-5.46l.667.667a.667.667 0 0 0 .946 0l.234-.233-2-2a.5.5 0 0 0-.707 0l-2 2 .233.233a.667.667 0 0 0 .947 0zm4.667-3.333V12h.333a.667.667 0 0 0 .667-.667V2.54l.666.667a.667.667 0 0 0 .947 0l.233-.234-2-2a.5.5 0 0 0-.706 0l-2 2 .233.234a.667.667 0 0 0 .947 0zM0 14.167v.333h16v-.333a.667.667 0 0 0-.667-.667H.667a.667.667 0 0 0-.667.667z" fill-rule="evenodd"></path></svg>