<svg xmlns:xlink="http://www.w3.org/1999/xlink" height="16" viewBox="0 0 16 16" width="16" xmlns="http://www.w3.org/2000/svg" class="designed-for_icon__d_KCg col-1" aria-hidden="true"><path d="M5.62 2.214a4.16 4.16 0 0 1 4.633 2.726A2.807 2.807 0 0 1 11 4.833a2.84 2.84 0 0 1 2.833 2.834 2.627 2.627 0 0 1-.053.513h.153a2.193 2.193 0 0 1 1.527.973 2.12 2.12 0 0 1-.127 2.54c-1.046 1.42-3.52 2.14-7.333 2.14-3.387 0-5.54-.666-7-2.16a2.86 2.86 0 0 1-.453-3.44 2.667 2.667 0 0 1 .953-.986 3.427 3.427 0 0 1 .713-.294 4.667 4.667 0 0 1-.046-.62 4.16 4.16 0 0 1 3.453-4.12zm.713.953a3.14 3.14 0 0 0-3.12 3.68 3.473 3.473 0 0 1 .46.066.667.667 0 0 1 .394.994l-.12.193A1.813 1.813 0 0 0 3 7.833a1.827 1.827 0 0 0-1.28 3.14c1.247 1.287 3.187 1.86 6.28 1.86 3.433 0 5.7-.606 6.553-1.746a1.213 1.213 0 0 0 .28-.754 1.173 1.173 0 0 0-1.166-1.166 1.16 1.16 0 0 0-.827.34l-.12-.12a.667.667 0 0 1-.113-.84l.08-.166a1.8 1.8 0 0 0 .146-.714c0-1.013-.82-1.834-1.833-1.834a1.753 1.753 0 0 0-.833.207 1.94 1.94 0 0 0-.44.313.667.667 0 0 1-.82.134l-.374-.214a2.807 2.807 0 0 1 .8-.9 3.16 3.16 0 0 0-3-2.206zM5.96 9c.268 0 .509.16.613.407a1.167 1.167 0 0 0 2.187 0A.667.667 0 0 1 9.373 9h.46A2.167 2.167 0 1 1 5.5 9z" fill-rule="evenodd"></path></svg>