<svg xmlns:xlink="http://www.w3.org/1999/xlink" height="24" width="24" viewBox="0 0 16 16" xmlns="http://www.w3.org/2000/svg" class="accordionItemHeadingIcon-3fkWR" focusable="false" role="img" aria-hidden="true"><path d="M14.6666666,14.1666667 L13.8333334,14.1666667 L13.8333334,5.54666665 C13.8333334,5.54666665 14.5,5.79333332 14.5,5.79333332 C14.6511529,5.84682049 14.8187879,5.82457414 14.9507584,5.7335145 C15.0827289,5.64245486 15.1630242,5.4936293 15.1666666,5.33333332 L15.1666666,2.66666663 C15.1662203,2.46562448 15.0454057,2.28440263 14.86,2.20666663 L14.86,2.20666663 C10.473118,0.359827097 5.52688199,0.359827097 1.13999996,2.20666663 L1.13999996,2.20666663 C0.95459429,2.28440263 0.83377972,2.46562448 0.833333289,2.66666663 L0.833333289,5.33333332 C0.836975794,5.4936293 0.917271113,5.64245486 1.04924161,5.7335145 C1.18121211,5.82457414 1.34884708,5.84682049 1.49999996,5.79333332 C1.49999996,5.79333332 2.16666662,5.53999998 2.16666662,5.54666665 L2.16666662,14.1666667 L1.33333329,14.1666667 C0.965143456,14.1666667 0.666666621,14.4651435 0.666666621,14.8333334 L0.666666621,15.1666667 L15.3333334,15.1666667 L15.3333334,14.8333334 C15.3333334,14.4651435 15.0348565,14.1666667 14.6666666,14.1666667 Z M5.83333332,14.1666667 L5.83333332,9.83333334 L7.5,9.83333334 L7.5,14.1666667 L5.83333332,14.1666667 Z M9.5,14.1666667 L8.5,14.1666667 L8.5,9.83333334 L10.1666667,9.83333334 L10.1666667,14.1666667 L9.5,14.1666667 Z M12.8333334,14.1666667 L11.1666666,14.1666667 L11.1666666,9.33333334 C11.1630761,9.05869196 10.9413081,8.83692388 10.6666666,8.83333334 L5.33333332,8.83333334 C5.05869194,8.83692388 4.83692386,9.05869196 4.83333331,9.33333334 L4.83333331,14.1666667 L3.16666664,14.1666667 L3.16666664,5.21333332 C6.32415988,4.29994135 9.67584012,4.29994135 12.8333334,5.21333332 L12.8333334,14.1666667 Z M1.83333329,4.59999998 L1.83333329,2.99999997 C5.80273822,1.47347453 10.1972618,1.47347453 14.1666667,2.99999997 L14.1666667,4.59999998 C10.1816349,3.1601024 5.81836507,3.1601024 1.83333329,4.59999998 L1.83333329,4.59999998 Z" fill="currentColor"></path></svg>