<svg xmlns:xlink="http://www.w3.org/1999/xlink" xmlns="http://www.w3.org/2000/svg" viewBox="0 0 24 24" xml:space="preserve" class="designed-for_icon__d_KCg col-1" aria-hidden="true" width="26"  height="26" ><path d="M14 8c1.9-.3 3-2.8 2.7-4.6-.3-1.9-2.1-3.1-4-2.8-.9.2-1.7.7-2.2 1.4s-.7 1.7-.6 2.6c.2.9.7 1.8 1.4 2.5.7.6 1.5 1 2.2 1 .2-.1.4-.1.5-.1zm1.2-4.3c.2 1.1-.5 2.7-1.4 2.9-.4.1-.9-.1-1.4-.6-.5-.4-.8-1.1-.9-1.6-.1-.5 0-1 .3-1.4.2-.5.7-.8 1.2-.9h.3c.9 0 1.7.6 1.9 1.6zM4.7 22.4s3.2-4.7 9.3-4.7h2.2v4.2c0 .4.3.8.8.8h2.7c.4 0 .7-.3.7-.6 0 0 .2-1 .2-1.4.5-3.1.2-5.7-.8-6.6-.9-.9-2.6-1.3-3.7-1.4.3-.8.5-1.8.5-2.7 0-.6.6-1.2 1.2-1.2h5c.6 0 1-.4 1-1v-.6h-6c-1.5 0-2.7 1.2-2.7 2.7 0 1.2-.4 2.3-.8 2.9-.2.2-.2.5 0 .8s.4.4.7.4c1.1 0 3.2.4 3.9 1.1.3.3.8 2.1.3 5.3 0 .2-.1.5-.1.7h-1.3V17c0-.4-.3-.8-.8-.8h-3c-6 0-9.4 3.8-10.3 5H2.4c.6-1.2 2.5-3.8 8.3-6.6.1-.1.3-.2.3-.3l.1-.1c.4-.7.9-1.7.6-3.5-.2-.8-.7-3.4-4-3.4H1v.5c0 .6.4 1 1 1h5.7c1.5 0 2.2.6 2.5 2.2.2 1.2-.1 1.9-.4 2.5C1 17.7.6 21.5.6 22c0 .2.1.4.2.6s.3.2.5.2H4c.3 0 .5-.2.7-.4z"></path></svg>