<svg xmlns:xlink="http://www.w3.org/1999/xlink" height="16" viewBox="0 0 16 16" width="16" xmlns="http://www.w3.org/2000/svg" class="designed-for_icon__d_KCg col-1" aria-hidden="true"><path d="M14.193 1.54a.493.493 0 0 0-.546.107 16.167 16.167 0 0 1-1.9 1.62l-.3-1.08A2.5 2.5 0 0 0 8.52.307l-3.927.713a2.467 2.467 0 0 0-1.626 1.053 2.253 2.253 0 0 0-.3 1.747l.72 3.333c-.874.24-1.42.347-1.44.347a.507.507 0 0 0-.414.493v5.334A2.5 2.5 0 0 0 4 15.833h8a2.5 2.5 0 0 0 2.5-2.5V2a.493.493 0 0 0-.307-.46zM3.607 3.607a1.253 1.253 0 0 1 .186-.94A1.48 1.48 0 0 1 4.773 2L8.7 1.287c.8-.167 1.588.332 1.78 1.126l.393 1.454A26.667 26.667 0 0 1 4.32 6.873zM12 14.833H4a1.5 1.5 0 0 1-1.5-1.5V8.407c1.527-.334 6.92-1.707 11-5.26v1.28a23.027 23.027 0 0 1-10.167 4.82l.067.313a.667.667 0 0 0 .807.513A23.7 23.7 0 0 0 13.54 5.7v7.633a1.5 1.5 0 0 1-1.54 1.5z" fill-rule="evenodd"></path></svg>