<svg xmlns:xlink="http://www.w3.org/1999/xlink" height="24" width="24" viewBox="0 0 24 24" xmlns="http://www.w3.org/2000/svg" class="iconButtonIcon-3D2lQ" focusable="false" role="img" aria-hidden="true"><path d="m12 0c-6.627417 0-12 5.372583-12 12s5.372583 12 12 12 12-5.372583 12-12-5.372583-12-12-12zm4.69 19.7333333c-1.0484896-.0017666-2.0533339-.4199725-2.7934778-1.1626169s-1.1549585-1.7488934-1.1531889-2.7973831c.0485423-.755246.2349487-1.4952231.55-2.1833333.1888889-.5111111.3777778-1.0188889.5666667-1.5233333.4756908-1.193802.8307914-2.43218723 1.06-3.6966667.1566667-1 .14-2.22666667-.6233333-3-.5833334-.58666667-1.4866667-.70333333-2.2966667-.72333333s-1.7133333.13666666-2.29666667.72666666c-.76333333.77-.78 2-.62333333 3 .22942436 1.2633467.58452194 2.50060497 1.06 3.69333337.1866667.5066666.3755556 1.0144444.5666667 1.5233333.3150513.6881102.5014577 1.4280873.55 2.1833333.0108181 1.8972796-1.33101712 3.5332966-3.19373864 3.8939286s-3.7181943-.6563704-4.41626139-2.4205952c.52880634.4863512 1.23685296.7294912 1.95288859.6706129.71603564-.0588783 1.37485437-.414413 1.81711141-.9806129.5325003-.7201071.69318124-1.6495845.43333333-2.5066667-.25666667-.93-.82-1.6666667-1.27-2.5466667-1.46333333-2.49999997-1.40333333-4.36999997-1.40333333-4.36999997 0-3.73 3.56-4.36333333 6.82333333-4.36333333 3.2633333 0 6.8233333.63333333 6.8233333 4.36333333 0 0 .06 1.87-1.4033333 4.36999997-.45.8633334-1 1.6166667-1.27 2.5466667-.2598479.8570822-.099167 1.7865596.4333333 2.5066667.4422571.5661999 1.1010758.9217346 1.8171114.9806129.7160357.0588783 1.4240823-.1842617 1.9528886-.6706129-.5973841 1.5002888-2.0484858 2.4852951-3.6633333 2.4866666z" fill="#FFFFFF"></path></svg>