<svg xmlns:xlink="http://www.w3.org/1999/xlink" height="16" width="16" viewBox="0 0 24 21" xmlns="http://www.w3.org/2000/svg" class="iconComponents_icon__2vPA3" focusable="false" role="img" aria-labelledby="icon_23debbcd-ea7d-42d9-8527-45b1bb4c9b5e" aria-hidden="false"><title id="icon_23debbcd-ea7d-42d9-8527-45b1bb4c9b5e"><svg height="21" width="24" viewBox="0 0 24 21" xmlns="http://www.w3.org/2000/svg"><path d="m12 22.75c-.1501298.0015167-.2969783-.0439364-.42-.13-.32-.21-7.79000004-5.27-10.24000005-9.76-1.46-2.68-1.79-6.46000002.75000001-8.86000003 2.48644548-2.3095024 6.33355456-2.3095024 8.82000004 0l1.09 1 1.08-1c2.4864455-2.3095024 6.3335546-2.3095024 8.82 0 2.5400001 2.41000001 2.21 6.19000003.75 8.87000003-2.45 4.49-9.9 9.55-10.22 9.76-.1269991.0845484-.2775728.126569-.43.12zm-5.50000002-19.00008131c-1.25081355-.00712629-2.45683499.46526193-3.37000002 1.32008128-2.00000001 1.87000001-1.66 4.90000002-.47 7.07000003 2.00000001 3.59 7.73000004 7.82 9.34000004 9 1.6-1.14 7.36-5.36 9.32-8.95 1.28-2.34000001 1.54-5.68000002-1-7.49000003-1.9684927-1.32808967-4.5950573-1.11197993-6.32.52l-.88.84000001 1.45 1.4-.35.36c-.3900374.3877236-1.0199625.3877236-1.41 0l-2.94000001-2.75000001c-.91316502-.85481935-2.11918646-1.32720757-3.37000001-1.32008128z" fill="currentColor" fill-rule="evenodd" transform="translate(0 -2)"></path></svg></title><path d="m12 22.75c-.1501298.0015167-.2969783-.0439364-.42-.13-.32-.21-7.79000004-5.27-10.24000005-9.76-1.46-2.68-1.79-6.46000002.75000001-8.86000003 2.48644548-2.3095024 6.33355456-2.3095024 8.82000004 0l1.09 1 1.08-1c2.4864455-2.3095024 6.3335546-2.3095024 8.82 0 2.5400001 2.41000001 2.21 6.19000003.75 8.87000003-2.45 4.49-9.9 9.55-10.22 9.76-.1269991.0845484-.2775728.126569-.43.12zm-5.50000002-19.00008131c-1.25081355-.00712629-2.45683499.46526193-3.37000002 1.32008128-2.00000001 1.87000001-1.66 4.90000002-.47 7.07000003 2.00000001 3.59 7.73000004 7.82 9.34000004 9 1.6-1.14 7.36-5.36 9.32-8.95 1.28-2.34000001 1.54-5.68000002-1-7.49000003-1.9684927-1.32808967-4.5950573-1.11197993-6.32.52l-.88.84000001 1.45 1.4-.35.36c-.3900374.3877236-1.0199625.3877236-1.41 0l-2.94000001-2.75000001c-.91316502-.85481935-2.11918646-1.32720757-3.37000001-1.32008128z" fill="currentColor" fill-rule="evenodd" transform="translate(0 -2)"></path></svg>